<?xml version="1.0" encoding="utf-8"?>
<!-- Generator: Adobe Illustrator 16.0.0, SVG Export Plug-In . SVG Version: 6.00 Build 0)  -->
<!DOCTYPE svg PUBLIC "-//W3C//DTD SVG 1.1//EN" "http://www.w3.org/Graphics/SVG/1.1/DTD/svg11.dtd">
<svg version="1.1" id="Layer_2" xmlns="http://www.w3.org/2000/svg" xmlns:xlink="http://www.w3.org/1999/xlink" x="0px" y="0px"
     width="147.324px" height="185.429px" viewBox="0 0 147.324 185.429" enable-background="new 0 0 147.324 185.429"
     xml:space="preserve">
<g>
    <g>
        <g>
            <path fill="#FFFFFF" d="M88.42,1.037c0,0-18.598,12.091-26.721,57.661c0,0,9.39-5.713,24.488-10.126l25.003-39.13
                C104.956,5.841,97.458,2.841,88.42,1.037z"/>
            <path fill="#FFFFFF" d="M140.009,45.246c0,0-5.271-22.076-28.567-35.663L90.569,47.371
                C104.019,43.948,121.197,41.883,140.009,45.246z"/>
            <path fill="#FFFFFF" d="M55.455,76.116c0,0-0.07-2.966,0.384-7.955L35.521,56.276C40.521,62.323,47.004,68.998,55.455,76.116z"/>
            <path fill="#FFFFFF" d="M82.961,1.572c0,0-35.068-10.459-64.081,22.573c0,0,0.582,10.736,12.86,27.312l24.975,9.545
                C58.988,46.066,65.33,22.485,82.961,1.572z"/>
            <path fill="#FFFFFF" d="M26.4,49.416c-3.712-6.061-7.088-12.807-9.786-20.275c0,0-26.592,25.141-12.491,66.782
                c0,0,19.77,10.061,63.295-5.689c0,0-22.667-12.391-39.492-38.4l-9.046-5.292L26.4,49.416z"/>
            <path fill="#FFFFFF" d="M7.315,100.383c0,0,8.477,35.6,51.59,44.209c0,0,18.597-12.092,26.72-57.661
                C85.625,86.931,50.816,108.158,7.315,100.383z"/>
            <path fill="#FFFFFF" d="M91.869,69.513c0,0,0.979,40.759-27.506,74.544c0,0,35.068,10.459,64.08-22.574
                C128.443,121.482,127.271,99.332,91.869,69.513z"/>
            <path fill="#FFFFFF" d="M79.906,55.396c0,0,0.507,0.279,1.397,0.818l1.075-1.683C81.558,54.816,80.745,55.093,79.906,55.396z"/>
            <path fill="#FFFFFF" d="M143.201,49.706c0,0-17.446-8.872-55.636,3.103l-3.024,5.478c10.168,6.818,34.47,25.823,46.17,58.202
                C130.711,116.488,157.301,91.348,143.201,49.706z"/>
        </g>
        <g>
            <path fill="#010101" d="M111.19,9.441c0.083,0.048,0.169,0.094,0.251,0.142l2.174-3.936L111.19,9.441z"/>
            <path fill="#010101" d="M82.379,54.532c1.766-0.612,3.503-1.194,5.187-1.723l3.004-5.438c-1.511,0.385-2.968,0.787-4.382,1.2
                L82.379,54.532z"/>
            <path fill="#010101" d="M26.4,49.416c0.502,0.82,1.012,1.623,1.525,2.417l7.596,4.443c-1.368-1.655-2.628-3.263-3.781-4.819
                L26.4,49.416z"/>
            <path fill="#010101" d="M71.932,66.818l-15.217-5.816c-0.409,2.688-0.688,5.097-0.876,7.159l12.06,7.054
                c-0.309-0.739-0.48-1.55-0.48-2.401C67.418,69.966,69.326,67.569,71.932,66.818z"/>
            <path fill="#010101" d="M81.304,56.214l-6.67,10.438c1.616,0.253,3.024,1.124,3.979,2.366l5.929-10.732
                C83.186,57.378,82.094,56.693,81.304,56.214z"/>
        </g>
    </g>
    <g>
        <path fill="#FFFFFF" d="M26.839,163.996v3.217h-4.92v14.268h-4.055v-14.268h-4.92v-3.217H26.839z"/>
        <path fill="#FFFFFF" d="M32.792,165.629c0,0.296-0.061,0.573-0.18,0.834c-0.121,0.26-0.285,0.487-0.492,0.684
            c-0.209,0.196-0.451,0.353-0.727,0.468c-0.275,0.116-0.57,0.174-0.883,0.174c-0.303,0-0.588-0.058-0.852-0.174
            c-0.264-0.115-0.498-0.271-0.701-0.468c-0.205-0.196-0.365-0.424-0.48-0.684c-0.115-0.261-0.174-0.538-0.174-0.834
            c0-0.305,0.059-0.589,0.174-0.853s0.275-0.496,0.48-0.696c0.203-0.199,0.438-0.355,0.701-0.468
            c0.264-0.111,0.549-0.168,0.852-0.168c0.312,0,0.607,0.057,0.883,0.168c0.275,0.112,0.518,0.269,0.727,0.468
            c0.207,0.2,0.371,0.433,0.492,0.696C32.731,165.04,32.792,165.324,32.792,165.629z M32.36,169.036v12.444H28.64v-12.444H32.36z"/>
        <path fill="#FFFFFF" d="M35.36,181.48v-12.444h2.303c0.232,0,0.426,0.053,0.582,0.156c0.156,0.104,0.266,0.26,0.33,0.468
            l0.205,0.672c0.207-0.216,0.424-0.413,0.646-0.594c0.225-0.18,0.467-0.336,0.727-0.468s0.541-0.236,0.84-0.312
            c0.301-0.075,0.631-0.113,0.99-0.113c0.752,0,1.375,0.193,1.865,0.582c0.492,0.388,0.867,0.905,1.123,1.554
            c0.207-0.384,0.461-0.712,0.762-0.984c0.301-0.271,0.625-0.491,0.973-0.659s0.715-0.292,1.104-0.372s0.773-0.12,1.158-0.12
            c0.711,0,1.344,0.105,1.896,0.317c0.551,0.213,1.014,0.521,1.385,0.925c0.373,0.403,0.654,0.899,0.846,1.487
            c0.193,0.588,0.289,1.254,0.289,1.998v7.908h-3.721v-7.908c0-1.288-0.551-1.932-1.656-1.932c-0.504,0-0.922,0.166-1.254,0.498
            s-0.498,0.81-0.498,1.434v7.908h-3.719v-7.908c0-0.712-0.141-1.212-0.42-1.5c-0.281-0.288-0.693-0.432-1.236-0.432
            c-0.336,0-0.654,0.076-0.955,0.228c-0.299,0.152-0.582,0.356-0.846,0.612v9H35.36z"/>
        <path fill="#FFFFFF" d="M61.351,168.845c0.824,0,1.578,0.128,2.264,0.384c0.684,0.256,1.271,0.628,1.764,1.116
            s0.875,1.086,1.152,1.794c0.275,0.708,0.414,1.51,0.414,2.406c0,0.279-0.014,0.508-0.037,0.684s-0.068,0.316-0.131,0.42
            c-0.064,0.104-0.15,0.176-0.26,0.216c-0.107,0.04-0.244,0.061-0.414,0.061h-7.176c0.121,1.04,0.438,1.794,0.949,2.262
            s1.172,0.702,1.98,0.702c0.432,0,0.803-0.052,1.115-0.156c0.312-0.104,0.59-0.22,0.834-0.348s0.469-0.244,0.672-0.349
            c0.203-0.104,0.418-0.155,0.643-0.155c0.295,0,0.52,0.107,0.672,0.323l1.08,1.332c-0.385,0.44-0.799,0.798-1.242,1.074
            c-0.445,0.276-0.9,0.492-1.369,0.648c-0.467,0.155-0.936,0.264-1.402,0.323c-0.469,0.061-0.914,0.091-1.34,0.091
            c-0.871,0-1.689-0.143-2.453-0.427c-0.764-0.283-1.432-0.705-2.004-1.266c-0.572-0.56-1.023-1.256-1.355-2.088
            s-0.498-1.8-0.498-2.904c0-0.832,0.141-1.62,0.426-2.364c0.283-0.743,0.691-1.396,1.225-1.955
            c0.531-0.561,1.176-1.004,1.932-1.332S60.399,168.845,61.351,168.845z M61.423,171.412c-0.711,0-1.268,0.202-1.668,0.606
            s-0.664,0.986-0.791,1.746h4.645c0-0.296-0.039-0.584-0.115-0.864s-0.199-0.53-0.371-0.75s-0.398-0.397-0.678-0.534
            C62.163,171.48,61.823,171.412,61.423,171.412z"/>
        <path fill="#FFFFFF" d="M83.454,167.549c-0.119,0.191-0.244,0.336-0.377,0.432s-0.303,0.144-0.51,0.144
            c-0.184,0-0.383-0.058-0.594-0.174c-0.213-0.115-0.453-0.246-0.721-0.39c-0.268-0.145-0.574-0.274-0.918-0.39
            c-0.344-0.116-0.736-0.175-1.176-0.175c-0.76,0-1.326,0.162-1.697,0.486c-0.373,0.324-0.559,0.762-0.559,1.314
            c0,0.352,0.111,0.644,0.336,0.876c0.223,0.231,0.518,0.432,0.881,0.6c0.365,0.168,0.781,0.322,1.248,0.462
            c0.469,0.141,0.947,0.296,1.436,0.468c0.486,0.173,0.965,0.374,1.434,0.606c0.467,0.232,0.883,0.528,1.248,0.888
            c0.363,0.36,0.658,0.798,0.881,1.314c0.225,0.516,0.336,1.138,0.336,1.866c0,0.808-0.139,1.563-0.42,2.268
            c-0.279,0.704-0.686,1.318-1.217,1.842c-0.533,0.524-1.188,0.937-1.969,1.236c-0.779,0.3-1.666,0.45-2.658,0.45
            c-0.543,0-1.098-0.057-1.662-0.168c-0.562-0.112-1.109-0.271-1.637-0.475c-0.529-0.204-1.025-0.445-1.488-0.726
            c-0.465-0.28-0.869-0.592-1.213-0.937l1.201-1.896c0.088-0.145,0.211-0.26,0.371-0.349c0.16-0.088,0.332-0.132,0.516-0.132
            c0.24,0,0.482,0.076,0.727,0.229c0.244,0.151,0.52,0.32,0.828,0.504s0.662,0.352,1.062,0.504c0.398,0.152,0.871,0.228,1.416,0.228
            c0.736,0,1.307-0.161,1.715-0.485s0.613-0.838,0.613-1.542c0-0.408-0.113-0.74-0.336-0.996c-0.225-0.256-0.52-0.468-0.883-0.636
            s-0.777-0.316-1.242-0.444c-0.463-0.128-0.939-0.271-1.428-0.426c-0.488-0.156-0.965-0.349-1.428-0.576
            c-0.465-0.229-0.879-0.528-1.242-0.9s-0.658-0.836-0.883-1.392c-0.223-0.556-0.336-1.242-0.336-2.059
            c0-0.655,0.133-1.296,0.396-1.92s0.652-1.18,1.164-1.668c0.512-0.487,1.141-0.878,1.885-1.17s1.596-0.438,2.555-0.438
            c0.537,0,1.059,0.042,1.566,0.126s0.99,0.208,1.445,0.372c0.457,0.164,0.883,0.359,1.279,0.588
            c0.396,0.228,0.75,0.486,1.062,0.773L83.454,167.549z"/>
        <path fill="#FFFFFF" d="M86.72,181.48v-12.444h2.303c0.232,0,0.426,0.053,0.582,0.156c0.156,0.104,0.266,0.26,0.33,0.468
            l0.217,0.721c0.24-0.225,0.488-0.433,0.744-0.624c0.256-0.192,0.529-0.354,0.822-0.486c0.291-0.132,0.607-0.236,0.947-0.312
            c0.34-0.075,0.709-0.113,1.109-0.113c0.68,0,1.283,0.118,1.807,0.354c0.523,0.236,0.965,0.564,1.326,0.984
            c0.359,0.42,0.631,0.92,0.816,1.5c0.184,0.58,0.275,1.21,0.275,1.89v7.908h-3.721v-7.908c0-0.607-0.139-1.082-0.42-1.422
            c-0.279-0.34-0.691-0.51-1.236-0.51c-0.408,0-0.791,0.088-1.15,0.264c-0.361,0.176-0.705,0.412-1.033,0.708v8.868H86.72z"/>
        <path fill="#FFFFFF" d="M109.231,181.48c-0.354,0-0.619-0.048-0.799-0.144c-0.18-0.097-0.33-0.296-0.449-0.601l-0.266-0.684
            c-0.311,0.264-0.611,0.496-0.898,0.695c-0.289,0.2-0.586,0.37-0.895,0.511c-0.309,0.14-0.637,0.243-0.984,0.312
            s-0.734,0.103-1.158,0.103c-0.568,0-1.084-0.074-1.547-0.223c-0.465-0.149-0.859-0.367-1.184-0.656
            c-0.322-0.289-0.572-0.648-0.75-1.078c-0.176-0.429-0.264-0.925-0.264-1.486c0-0.441,0.113-0.896,0.336-1.36
            c0.225-0.466,0.613-0.889,1.164-1.271c0.553-0.381,1.297-0.7,2.232-0.957s2.115-0.385,3.541-0.385v-0.533
            c0-0.734-0.15-1.266-0.451-1.593c-0.299-0.327-0.727-0.49-1.277-0.49c-0.439,0-0.801,0.048-1.08,0.144
            c-0.281,0.097-0.529,0.204-0.75,0.324s-0.434,0.229-0.643,0.324c-0.207,0.096-0.455,0.144-0.744,0.144
            c-0.256,0-0.473-0.062-0.654-0.186c-0.18-0.124-0.322-0.278-0.426-0.462l-0.672-1.164c0.752-0.664,1.586-1.158,2.502-1.482
            s1.898-0.485,2.947-0.485c0.752,0,1.43,0.122,2.033,0.365c0.604,0.244,1.115,0.584,1.535,1.021
            c0.42,0.436,0.742,0.954,0.967,1.554c0.225,0.601,0.336,1.256,0.336,1.968v7.776H109.231z M104.958,179.213
            c0.48,0,0.9-0.084,1.26-0.252c0.361-0.169,0.725-0.44,1.094-0.816v-1.704c-0.744,0-1.357,0.049-1.836,0.146
            c-0.48,0.097-0.861,0.218-1.141,0.363c-0.281,0.146-0.475,0.311-0.582,0.496s-0.162,0.387-0.162,0.605
            c0,0.428,0.115,0.728,0.348,0.901S104.511,179.213,104.958,179.213z"/>
        <path fill="#FFFFFF" d="M113.575,185.429v-16.393h2.303c0.232,0,0.426,0.053,0.582,0.156c0.156,0.104,0.266,0.26,0.33,0.468
            l0.275,0.912c0.24-0.264,0.498-0.504,0.775-0.72c0.275-0.216,0.572-0.402,0.887-0.558c0.316-0.156,0.656-0.278,1.021-0.366
            c0.363-0.088,0.762-0.132,1.193-0.132c0.648,0,1.248,0.144,1.801,0.432c0.551,0.288,1.027,0.704,1.428,1.248
            c0.398,0.544,0.713,1.21,0.941,1.998s0.342,1.682,0.342,2.682c0,0.937-0.131,1.8-0.391,2.592s-0.623,1.48-1.092,2.064
            c-0.467,0.584-1.027,1.04-1.68,1.368s-1.373,0.492-2.166,0.492c-0.648,0-1.191-0.093-1.631-0.276
            c-0.441-0.184-0.842-0.432-1.201-0.744v4.776H113.575z M119.646,171.641c-0.271,0-0.518,0.026-0.736,0.078
            c-0.221,0.052-0.426,0.126-0.613,0.222s-0.361,0.218-0.521,0.366s-0.32,0.317-0.48,0.51v5.28c0.279,0.312,0.584,0.53,0.912,0.653
            c0.328,0.125,0.672,0.187,1.031,0.187c0.346,0,0.66-0.068,0.949-0.204c0.287-0.136,0.537-0.354,0.75-0.654
            c0.211-0.3,0.377-0.689,0.498-1.17c0.119-0.479,0.18-1.063,0.18-1.752c0-0.655-0.049-1.208-0.145-1.656
            c-0.096-0.447-0.23-0.81-0.402-1.086c-0.172-0.275-0.377-0.474-0.617-0.594S119.942,171.641,119.646,171.641z"/>
        <path fill="#FFFFFF" d="M135.054,171.761c-0.096,0.151-0.199,0.26-0.307,0.323c-0.107,0.064-0.246,0.097-0.414,0.097
            c-0.176,0-0.352-0.038-0.527-0.114s-0.367-0.158-0.57-0.246s-0.434-0.17-0.689-0.246s-0.549-0.113-0.877-0.113
            c-0.473,0-0.834,0.09-1.086,0.27s-0.377,0.43-0.377,0.75c0,0.232,0.082,0.424,0.246,0.576s0.381,0.286,0.652,0.401
            c0.273,0.116,0.58,0.227,0.926,0.33c0.344,0.104,0.695,0.221,1.055,0.349c0.361,0.128,0.713,0.277,1.057,0.45
            c0.344,0.172,0.652,0.384,0.924,0.636s0.49,0.558,0.654,0.918c0.164,0.359,0.246,0.792,0.246,1.296
            c0,0.616-0.113,1.184-0.336,1.704c-0.225,0.52-0.559,0.968-1.002,1.344c-0.445,0.376-0.992,0.668-1.645,0.876
            s-1.402,0.312-2.25,0.312c-0.424,0-0.848-0.04-1.271-0.12s-0.834-0.188-1.23-0.324s-0.762-0.298-1.098-0.486
            c-0.336-0.188-0.625-0.39-0.865-0.605l0.865-1.368c0.104-0.16,0.229-0.286,0.371-0.378c0.145-0.092,0.332-0.138,0.564-0.138
            c0.217,0,0.41,0.048,0.582,0.144s0.357,0.2,0.559,0.312c0.199,0.112,0.434,0.217,0.701,0.312s0.605,0.144,1.014,0.144
            c0.289,0,0.533-0.029,0.732-0.09c0.199-0.06,0.359-0.142,0.48-0.246c0.119-0.104,0.207-0.22,0.264-0.348s0.084-0.26,0.084-0.396
            c0-0.247-0.084-0.451-0.252-0.611s-0.389-0.298-0.66-0.414s-0.582-0.224-0.93-0.324c-0.348-0.1-0.703-0.214-1.062-0.342
            s-0.713-0.282-1.062-0.462c-0.348-0.181-0.658-0.408-0.93-0.685c-0.271-0.275-0.492-0.613-0.66-1.014
            c-0.168-0.399-0.252-0.884-0.252-1.452c0-0.527,0.104-1.029,0.307-1.506c0.203-0.476,0.51-0.894,0.918-1.254
            s0.92-0.646,1.535-0.858c0.617-0.212,1.336-0.317,2.16-0.317c0.449,0,0.883,0.04,1.303,0.12s0.814,0.191,1.182,0.336
            c0.369,0.144,0.705,0.313,1.008,0.51c0.305,0.196,0.572,0.41,0.805,0.642L135.054,171.761z"/>
    </g>
</g>
</svg>
